HIERARCHY
ROOT root
{
  OFFSET 0 98.6856 0
  CHANNELS 6 Xposition Yposition Zposition Zrotation Xrotation Yrotation
  JOINT torso_1
  {
    OFFSET 0 5.37224 -1.21793
    CHANNELS 6 Xposition Yposition Zposition Zrotation Xrotation Yrotation
    JOINT torso_2
    {
      OFFSET 0 5.94127 1.13336
      CHANNELS 6 Xposition Yposition Zposition Zrotation Xrotation Yrotation
      JOINT torso_3
      {
        OFFSET -1.08535e-17 6.33601 0.121658
        CHANNELS 6 Xposition Yposition Zposition Zrotation Xrotation Yrotation
        JOINT torso_4
        {
          OFFSET -1.16841e-17 6.88189 -0.46916
          CHANNELS 6 Xposition Yposition Zposition Zrotation Xrotation Yrotation
          JOINT torso_5
          {
            OFFSET -2.08699e-17 8.0451 -1.59297
            CHANNELS 6 Xposition Yposition Zposition Zrotation Xrotation Yrotation
            JOINT torso_6
            {
              OFFSET -2.67949e-17 10.0463 -0.967353
              CHANNELS 6 Xposition Yposition Zposition Zrotation Xrotation Yrotation
              JOINT torso_7
              {
                OFFSET -3.07187e-17 11.1612 1.66806
                CHANNELS 6 Xposition Yposition Zposition Zrotation Xrotation Yrotation
                JOINT neck_1
                {
                  OFFSET -1.36661e-17 5.06312 0.756688
                  CHANNELS 6 Xposition Yposition Zposition Zrotation Xrotation Yrotation
                  JOINT neck_2
                  {
                    OFFSET -1.91632e-17 5.09976 0.446172
                    CHANNELS 6 Xposition Yposition Zposition Zrotation Xrotation Yrotation
                    JOINT head
                    {
                      OFFSET -2.12574e-17 5.10962 0.809285
                      CHANNELS 6 Xposition Yposition Zposition Zrotation Xrotation Yrotation
                      End Site
                      {
                        OFFSET 0 0.1 0
                      }
                    }
                  }
                }
                JOINT l_shoulder
                {
                  OFFSET 1.30426 -8.04703 7.96922
                  CHANNELS 6 Xposition Yposition Zposition Zrotation Xrotation Yrotation
                  JOINT l_up_arm
                  {
                    OFFSET 13.7035 3.43734 -3.45766
                    CHANNELS 6 Xposition Yposition Zposition Zrotation Xrotation Yrotation
                    JOINT l_low_arm
                    {
                      OFFSET 30.8964 0.0632652 0.14496
                      CHANNELS 6 Xposition Yposition Zposition Zrotation Xrotation Yrotation
                      JOINT l_hand
                      {
                        OFFSET 25.6348 0.0524902 0.120274
                        CHANNELS 6 Xposition Yposition Zposition Zrotation Xrotation Yrotation
                        End Site
                        {
                          OFFSET 0.1 0 0
                        }
                      }
                    }
                  }
                }
                JOINT r_shoulder
                {
                  OFFSET -1.30426 -8.04702 7.96912
                  CHANNELS 6 Xposition Yposition Zposition Zrotation Xrotation Yrotation
                  JOINT r_up_arm
                  {
                    OFFSET -13.7035 3.43734 -3.45766
                    CHANNELS 6 Xposition Yposition Zposition Zrotation Xrotation Yrotation
                    JOINT r_low_arm
                    {
                      OFFSET -30.8964 0.0632652 0.14496
                      CHANNELS 6 Xposition Yposition Zposition Zrotation Xrotation Yrotation
                      JOINT r_hand
                      {
                        OFFSET -25.6348 0.0524901 0.120274
                        CHANNELS 6 Xposition Yposition Zposition Zrotation Xrotation Yrotation
                        End Site
                        {
                          OFFSET -0.1 0 0
                        }
                      }
                    }
                  }
                }
              }
            }
          }
        }
      }
    }
  }
  JOINT l_up_leg
  {
    OFFSET 9.77065 -4.44866 2.1502
    CHANNELS 6 Xposition Yposition Zposition Zrotation Xrotation Yrotation
    JOINT l_low_leg
    {
      OFFSET -0.901622 -41.0132 -0.693059
      CHANNELS 6 Xposition Yposition Zposition Zrotation Xrotation Yrotation
      JOINT l_foot
      {
        OFFSET -2.46068 -42.7371 -6.39839
        CHANNELS 6 Xposition Yposition Zposition Zrotation Xrotation Yrotation
        JOINT l_toes
        {
          OFFSET 0.82413 -10.4558 13.2182
          CHANNELS 6 Xposition Yposition Zposition Zrotation Xrotation Yrotation
          End Site
          {
            OFFSET 0 0 0.1
          }
        }
      }
    }
  }
  JOINT r_up_leg
  {
    OFFSET -9.77065 -4.44866 2.1502
    CHANNELS 6 Xposition Yposition Zposition Zrotation Xrotation Yrotation
    JOINT r_low_leg
    {
      OFFSET 0.901622 -41.0132 -0.693059
      CHANNELS 6 Xposition Yposition Zposition Zrotation Xrotation Yrotation
      JOINT r_foot
      {
        OFFSET 2.46068 -42.7371 -6.39839
        CHANNELS 6 Xposition Yposition Zposition Zrotation Xrotation Yrotation
        JOINT r_toes
        {
          OFFSET -0.82413 -10.4558 13.2182
          CHANNELS 6 Xposition Yposition Zposition Zrotation Xrotation Yrotation
          End Site
          {
            OFFSET 0 0 0.1
          }
        }
      }
    }
  }
}
MOTION
Frames:4
Frame Time:0.020000
0 98.6856 0 -0 0 -0 0 5.37224 -1.21793 -0 0 -0 0 5.94127 1.13336 -0 0 -0 -1.08535e-17 6.33601 0.121658 -0 0 -0 -1.16841e-17 6.88189 -0.46916 -0 0 -0 -2.08699e-17 8.0451 -1.59297 -0 0 -0 -2.67949e-17 10.0463 -0.967353 -0 0 -0 -3.07187e-17 11.1612 1.66806 -0 0 -0 -1.36661e-17 5.06312 0.756688 -0 0 -0 -1.91632e-17 5.09976 0.446172 -0 0 -0 -2.12574e-17 5.10962 0.809285 -0 0 -0 1.30426 -8.04703 7.96922 -0 0 -0 13.7035 3.43734 -3.45766 -0 0 -0 30.8964 0.0632652 0.14496 -0 0 -0 25.6348 0.0524902 0.120274 -0 0 -0 -1.30426 -8.04702 7.96912 -0 0 -0 -13.7035 3.43734 -3.45766 -0 0 -0 -30.8964 0.0632652 0.14496 -0 0 -0 -25.6348 0.0524901 0.120274 -0 0 -0 9.77065 -4.44866 2.1502 -0 0 -0 -0.901622 -41.0132 -0.693059 -0 0 -0 -2.46068 -42.7371 -6.39839 -0 0 -0 0.82413 -10.4558 13.2182 -0 0 -0 -9.77065 -4.44866 2.1502 -0 0 -0 0.901622 -41.0132 -0.693059 -0 0 -0 2.46068 -42.7371 -6.39839 -0 0 -0 -0.82413 -10.4558 13.2182 -0 0 -0 
-8.27683 98.2361 -66.4393 -2.21788 -1.86656 -7.20647 0 5.37224 -1.21793 0.0849408 -0.193035 -0.454339 0 5.94127 1.13336 0.154972 0.00758665 -0.451015 -1.08535e-17 6.33601 0.121658 0.261475 0.366159 -0.407232 -1.16841e-17 6.88189 -0.46916 0.382846 0.790623 -0.394478 -2.08699e-17 8.0451 -1.59297 0.451522 0.899198 -0.512076 -2.67949e-17 10.0463 -0.967353 0.346252 0.898767 -0.733828 -3.07187e-17 11.1612 1.66806 -0.00319475 0.127453 -0.0132629 -1.36661e-17 5.06312 0.756688 0.561093 3.03876 -7.91969 -1.91632e-17 5.09976 0.446172 1.29085 3.08677 -4.02148 -2.12574e-17 5.10962 0.809285 0.118984 7.58273 -2.17975 1.30426 -8.04703 7.96922 -1.79153 2.3104 -3.28573 13.7035 3.43734 -3.45766 -85.9877 8.77122 -0.102434 30.8964 0.0632652 0.14496 1.26502 -0.0607938 -6.10778 25.6348 0.0524902 0.120274 -0.70677 -11.2174 -3.62106 -1.30426 -8.04702 7.96912 2.04677 4.11466 2.56747 -13.7035 3.43734 -3.45766 81.9212 17.0716 5.90526 -30.8964 0.0632652 0.14496 -1.4055 -0.0760959 6.78832 -25.6348 0.0524901 0.120274 0.81216 -15.5111 1.78811 9.77065 -4.44866 2.1502 4.08081 4.50273 -11.1923 -0.901622 -41.0132 -0.693059 -0.511295 1.90938 -0.0248092 -2.46068 -42.7371 -6.39839 3.06902 -3.23271 15.1574 0.82413 -10.4558 13.2182 5.17104e-17 -7.95076e-16 1.23611e-17 -9.77065 -4.44866 2.1502 0.165581 2.35316 19.8831 0.901622 -41.0132 -0.693059 0.328862 1.22787 0.017909 2.46068 -42.7371 -6.39839 -1.74862 -0.711537 -14.8978 -0.82413 -10.4558 13.2182 -2.00799e-16 -5.83804e-16 -1.27594e-14 
-8.23178 98.2364 -66.4351 -2.23096 -1.87392 -7.22595 0 5.37224 -1.21793 0.0846965 -0.192388 -0.4547 0 5.94127 1.13336 0.155274 0.00805098 -0.451101 -1.08535e-17 6.33601 0.121658 0.26202 0.366663 -0.407243 -1.16841e-17 6.88189 -0.46916 0.383597 0.791185 -0.394284 -2.08699e-17 8.0451 -1.59297 0.452469 0.899684 -0.512174 -2.67949e-17 10.0463 -0.967353 0.346978 0.899289 -0.734485 -3.07187e-17 11.1612 1.66806 -0.00317883 0.127434 -0.0132774 -1.36661e-17 5.06312 0.756688 0.563369 3.03137 -7.91985 -1.91632e-17 5.09976 0.446172 1.29589 3.0808 -4.02171 -2.12574e-17 5.10962 0.809285 0.123524 7.57866 -2.17095 1.30426 -8.04703 7.96922 -1.80247 2.31739 -3.29289 13.7035 3.43734 -3.45766 -85.9779 8.82219 -0.103927 30.8964 0.0632652 0.14496 1.26319 -0.0606077 -6.09892 25.6348 0.0524902 0.120274 -0.720474 -11.2478 -3.61718 -1.30426 -8.04702 7.96912 2.04232 4.11607 2.57072 -13.7035 3.43734 -3.45766 81.9133 17.0991 5.90262 -30.8964 0.0632652 0.14496 -1.40553 -0.0760994 6.78846 -25.6348 0.0524901 0.120274 0.819646 -15.5282 1.78875 9.77065 -4.44866 2.1502 4.06269 4.52502 -11.1798 -0.901622 -41.0132 -0.693059 -0.507104 1.89372 -0.024675 -2.46068 -42.7371 -6.39839 3.10027 -3.23078 15.1531 0.82413 -10.4558 13.2182 4.45251e-16 -7.82778e-16 6.29452e-20 -9.77065 -4.44866 2.1502 0.147835 2.35541 19.8851 0.901622 -41.0132 -0.693059 0.329458 1.23009 0.0179351 2.46068 -42.7371 -6.39839 -1.7188 -0.705422 -14.9021 -0.82413 -10.4558 13.2182 -1.38545e-15 -5.34486e-16 -1.271e-14 
-8.18607 98.2373 -66.4291 -2.23234 -1.87385 -7.24568 0 5.37224 -1.21793 0.082254 -0.195358 -0.453827 0 5.94127 1.13336 0.153374 0.00615385 -0.450269 -1.08535e-17 6.33601 0.121658 0.260617 0.366111 -0.406367 -1.16841e-17 6.88189 -0.46916 0.382699 0.793016 -0.393287 -2.08699e-17 8.0451 -1.59297 0.452288 0.902863 -0.511175 -2.67949e-17 10.0463 -0.967353 0.347524 0.90319 -0.733789 -3.07187e-17 11.1612 1.66806 -0.0031588 0.12739 -0.0132619 -1.36661e-17 5.06312 0.756688 0.564496 3.01931 -7.91451 -1.91632e-17 5.09976 0.446172 1.29578 3.08087 -4.01971 -2.12574e-17 5.10962 0.809285 0.124043 7.5807 -2.16488 1.30426 -8.04703 7.96922 -1.81442 2.32231 -3.29869 13.7035 3.43734 -3.45766 -85.9695 8.8988 -0.102104 30.8964 0.0632652 0.14496 1.26331 -0.06062 -6.09951 25.6348 0.0524902 0.120274 -0.735668 -11.2861 -3.62756 -1.30426 -8.04702 7.96912 2.04715 4.11745 2.57692 -13.7035 3.43734 -3.45766 81.9028 17.1251 5.90385 -30.8964 0.0632652 0.14496 -1.40543 -0.0760884 6.788 -25.6348 0.0524901 0.120274 0.826014 -15.5703 1.79435 9.77065 -4.44866 2.1502 4.03231 4.54566 -11.1691 -0.901622 -41.0132 -0.693059 -0.499536 1.86545 -0.0244298 -2.46068 -42.7371 -6.39839 3.12729 -3.21828 15.1485 0.82413 -10.4558 13.2182 4.47266e-16 -7.82715e-16 3.05504e-33 -9.77065 -4.44866 2.1502 0.120436 2.34839 19.8923 0.901622 -41.0132 -0.693059 0.330872 1.23538 0.0179968 2.46068 -42.7371 -6.39839 -1.70091 -0.701731 -14.9059 -0.82413 -10.4558 13.2182 1.90728e-16 -5.96039e-16 -1.27716e-14 
